<?xml version="1.0" encoding="utf-8"?>
<!-- Generator: Adobe Illustrator 24.0.0, SVG Export Plug-In . SVG Version: 6.00 Build 0)  -->
<svg version="1.1" id="Layer_1" xmlns="http://www.w3.org/2000/svg" xmlns:xlink="http://www.w3.org/1999/xlink" x="0px" y="0px"
	 viewBox="0 0 128 128" style="enable-background:new 0 0 128 128;" xml:space="preserve">
<style type="text/css">
	.st0{fill:#36A2F5;}
	.st1{fill:#F4EFEF;}
</style>
<path class="st0" d="M82.8,33.4l3.4,5.5l37.5,60.3c5.6,8.9,1.5,16.2-9.1,16.2h-101c-10.5,0-14.7-7.4-9.1-16.3l49.4-79.7
	c5.6-8.9,14.6-8.9,20.2,0L82.8,33.4z"/>
<g>
	<path class="st1" d="M64,86.3c-2.7,0-5-2.2-5-5V45.8c0-2.7,2.3-5,5-5s5,2.2,5,5v35.6C69,84,66.7,86.3,64,86.3z"/>
	<path class="st1" d="M63.9,102.1c-1.3,0-2.6-0.5-3.5-1.5c-0.9-0.9-1.5-2.2-1.5-3.5s0.5-2.6,1.5-3.5c0.9-0.9,2.2-1.5,3.5-1.5
		c1.3,0,2.6,0.5,3.5,1.5c0.9,0.9,1.5,2.2,1.5,3.5s-0.5,2.6-1.5,3.5C66.5,101.5,65.2,102.1,63.9,102.1z"/>
</g>
<path d="M114.5,116.6h-101c-5.5,0-9.5-1.9-11.4-5.4c-1.9-3.5-1.4-8.2,1.5-12.7L53,18.6c2.9-4.7,6.8-7.3,11-7.3l0,0
	c4.2,0,8.1,2.5,10.8,7.1l8.8,14l0,0l3.4,5.5l37.5,60.6c2.9,4.6,3.4,9.2,1.5,12.7C124.1,114.8,120,116.6,114.5,116.6z M63.9,13.3
	L63.9,13.3c-3.5,0-6.8,2.2-9.3,6.3L5.1,99.5c-2.5,4-3,7.9-1.4,10.7s5.1,4.4,9.7,4.4h101c4.7,0,8.2-1.6,9.7-4.4
	c1.6-2.8,1.1-6.8-1.4-10.7L85.4,39L82,33.5l-8.8-14C70.7,15.5,67.4,13.3,63.9,13.3z"/>
<path d="M63,87.3c-3.3,0-6-2.7-6-6V45.8c0-3.3,2.7-6,6-6c3.3,0,6,2.7,6,6v35.6C69,84.6,66.3,87.3,63,87.3z M63,41.8
	c-2.2,0-4,1.8-4,4v35.6c0,2.2,1.8,4,4,4s4-1.8,4-4V45.8C67,43.6,65.2,41.8,63,41.8z"/>
<path d="M63,103.1L63,103.1c-1.6,0-3.1-0.6-4.2-1.7c-1.1-1.1-1.7-2.7-1.7-4.2c0-1.6,0.6-3.1,1.7-4.2s2.7-1.8,4.2-1.8
	c1.6,0,3.1,0.6,4.2,1.8c1.1,1.1,1.8,2.6,1.8,4.2s-0.6,3.1-1.8,4.2C66.1,102.4,64.6,103.1,63,103.1z M63,93.2c-1,0-2.1,0.4-2.8,1.2
	c-0.7,0.7-1.2,1.8-1.2,2.8c0,1.1,0.4,2.1,1.2,2.8c0.7,0.7,1.8,1.2,2.8,1.2s2.1-0.4,2.8-1.2c0.7-0.7,1.2-1.8,1.2-2.8
	s-0.4-2.1-1.2-2.8C65.1,93.6,64,93.2,63,93.2z"/>
</svg>
