<?xml version="1.0" encoding="utf-8"?>
<!-- Generator: Adobe Illustrator 24.0.0, SVG Export Plug-In . SVG Version: 6.00 Build 0)  -->
<svg version="1.1" id="Capa_1" xmlns="http://www.w3.org/2000/svg" xmlns:xlink="http://www.w3.org/1999/xlink" x="0px" y="0px"
	 viewBox="0 0 128 128" style="enable-background:new 0 0 128 128;" xml:space="preserve">
<style type="text/css">
	.st0{fill:#5B47FB;}
</style>
<g>
	<g>
		<path class="st0" d="M114.1,39H13.9c-1.5,0-2.8,1.2-2.8,2.8v16.7c0,29.2,23.7,52.9,52.9,52.9s52.9-23.7,52.9-52.9V41.7
			C116.9,40.2,115.6,39,114.1,39z M111.3,58.4c0,26.1-21.2,47.3-47.3,47.3S16.7,84.5,16.7,58.4V44.5h94.6V58.4z"/>
	</g>
</g>
<g>
	<g>
		<path class="st0" d="M64,50.1c-13.8,0-25,11.2-25,25s11.2,25,25,25s25-11.2,25-25S77.8,50.1,64,50.1z M64,94.6
			c-10.7,0-19.5-8.7-19.5-19.5S53.3,55.7,64,55.7s19.5,8.7,19.5,19.5S74.7,94.6,64,94.6z"/>
	</g>
</g>
<g>
	<g>
		<path class="st0" d="M64,61.2c-7.7,0-13.9,6.2-13.9,13.9S56.3,89,64,89s13.9-6.2,13.9-13.9S71.7,61.2,64,61.2z M64,83.5
			c-4.6,0-8.3-3.7-8.3-8.3c0-4.6,3.7-8.3,8.3-8.3s8.3,3.7,8.3,8.3C72.3,79.7,68.6,83.5,64,83.5z"/>
	</g>
</g>
<g>
	<g>
		<path class="st0" d="M125.2,16.7H2.8c-1.5,0-2.8,1.2-2.8,2.8v16.7c0,4.6,3.7,8.3,8.3,8.3h111.3c4.6,0,8.3-3.7,8.3-8.3V19.5
			C128,17.9,126.8,16.7,125.2,16.7z M122.4,36.2c0,1.5-1.3,2.8-2.8,2.8H8.3c-1.5,0-2.8-1.2-2.8-2.8V22.3h116.9V36.2z"/>
	</g>
</g>
<g>
	<g>
		<circle class="st0" cx="97.4" cy="58.4" r="2.8"/>
	</g>
</g>
</svg>
