<?xml version="1.0" encoding="utf-8"?>
<!-- Generator: Adobe Illustrator 24.0.0, SVG Export Plug-In . SVG Version: 6.00 Build 0)  -->
<svg version="1.1" id="Layer_3" xmlns="http://www.w3.org/2000/svg" xmlns:xlink="http://www.w3.org/1999/xlink" x="0px" y="0px"
	 viewBox="0 0 128 128" style="enable-background:new 0 0 128 128;" xml:space="preserve">
<style type="text/css">
	.st0{fill:#5B47FB;}
</style>
<path class="st0" d="M115.6,68.4l-21-4c0-0.1,0-0.2,0-0.3v-4.8c6.1-3.5,10.2-10.1,10.2-17.7c3.4,0,6.1-2.7,6.1-6.1
	c0-3-2.2-5.5-5.1-6l1.2-2.7c2.1-4.9,1.7-10.5-1-15c-1.7-2.9-4.3-5.1-7.3-6.5L93,2.6c-6.7-3.1-15-2.2-20.9,2.3L69,7.3l-0.1,0.1
	c-3.2,0.8-6,2.9-7.7,5.8c-2.3,3.7-2.4,8.3-0.5,12.2l2.1,4.2c-2.8,0.6-4.9,3-4.9,6c0,3.4,2.7,6.1,6.1,6.1c0,7.5,4.1,14.1,10.2,17.7
	v4.8c0,0.1,0,0.2,0,0.3L66,66V62c0-3.4-2.7-6.1-6.1-6.1H6.8c-3.4,0-6.1,2.7-6.1,6.1v28.6c0,3.4,2.7,6.1,6.1,6.1h20.4V111H2.7
	c-1.1,0-2,0.9-2,2v12.3c0,1.1,0.9,2,2,2H113h12.3c1.1,0,2-0.9,2-2V82.5C127.3,75.6,122.4,69.6,115.6,68.4L115.6,68.4z M39.5,96.7h2
	V111h-2V96.7z M45.6,96.7h8.2V111h-8.2V96.7z M57.9,96.7H64h47V111H57.9V96.7z M111,92.7h-4.1V70.9l4.1,0.8V92.7z M106.9,35.5
	c0,1.1-0.9,2-2,2v-4.1C106,33.4,106.9,34.4,106.9,35.5z M64.7,15.2c1.6-2.6,4.4-4.2,7.4-4.2c3.2,0,6.2,1.6,7.9,4.3l0.6,1l3.4-2.3
	l-0.6-1c-1.8-2.8-4.6-4.7-7.7-5.6c4.6-2.9,10.6-3.3,15.6-1.1L97,8.9c2.3,1,4.2,2.7,5.5,4.9c2.1,3.4,2.3,7.6,0.8,11.3l-0.1,0.3
	l-2.6-5.2c-0.3-0.5-0.8-0.9-1.4-1.1c-0.6-0.1-1.2,0-1.7,0.4L94.2,22c-2.8,2.1-6.3,3.3-9.8,3.3s-7-1.2-9.8-3.3l-3.3-2.5
	c-0.5-0.4-1.1-0.5-1.7-0.4c-0.6,0.1-1.1,0.5-1.4,1.1l-2.8,5.5l-1.2-2.3C63,20.8,63.2,17.7,64.7,15.2L64.7,15.2z M62,35.5
	c0-1.1,0.9-2,2-2v4.1C62.9,37.5,62,36.6,62,35.5z M68.1,41.6V29.8l2.8-5.5l1.3,1c3.5,2.6,7.9,4.1,12.3,4.1c4.4,0,8.7-1.4,12.3-4.1
	l1.3-1l2.8,5.5v11.8c0,9-7.3,16.3-16.3,16.3S68.1,50.6,68.1,41.6z M84.4,62c2.1,0,4.2-0.3,6.1-0.9v3c0,3.4-2.7,6.1-6.1,6.1
	c-3.4,0-6.1-2.7-6.1-6.1v-3C80.2,61.7,82.3,62,84.4,62z M75.2,68.4c1.6,3.5,5.1,5.9,9.2,5.9s7.6-2.4,9.2-5.9l9.2,1.7v22.5H66V70.1
	L75.2,68.4z M6.8,92.7c-1.1,0-2-0.9-2-2V62c0-1.1,0.9-2,2-2h53.1c1.1,0,2,0.9,2,2v30.6h-6.1H39.5V76.3c0-1.1-0.9-2-2-2h-8.2
	c-1.1,0-2,0.9-2,2v16.3H6.8z M31.3,78.4h4.1V111h-4.1V78.4z M111,123.3H4.8v-8.2H111V123.3z M123.2,123.3H115v-10.2V94.7V72.5
	c4.7,1,8.2,5.1,8.2,10V123.3z"/>
</svg>
