<?xml version="1.0" encoding="utf-8"?>
<!-- Generator: Adobe Illustrator 24.0.0, SVG Export Plug-In . SVG Version: 6.00 Build 0)  -->
<svg version="1.1" id="Capa_1" xmlns="http://www.w3.org/2000/svg" xmlns:xlink="http://www.w3.org/1999/xlink" x="0px" y="0px"
	 viewBox="0 0 128 128" style="enable-background:new 0 0 128 128;" xml:space="preserve">
<style type="text/css">
	.st0{fill:#5B47FB;}
</style>
<g>
	<g>
		<path class="st0" d="M68.5,19.8H21.1c-1.5,0-2.7,1.2-2.7,2.7v31.4c0,1.5,1.2,2.7,2.7,2.7h47.4c1.5,0,2.7-1.2,2.7-2.7V22.5
			C71.2,21,70,19.8,68.5,19.8z M65.9,51.1H23.8v-26h42.1V51.1z"/>
	</g>
</g>
<g>
	<g>
		<path class="st0" d="M125.2,116H80.3V73.1h4.4c4,0,7.2,3.2,7.2,7.2c0,0,0,0,0,0.1v7.4c0,7.9,6.4,14.2,14.2,14.2
			s14.2-6.4,14.2-14.2V45.4c0-4.4-1.6-8.6-4.6-11.9l-21-23.9l-4,3.5l16.2,18.5c-5.9,1-9.8,6.5-8.8,12.4c0.9,5.2,5.4,9,10.6,9
			c2.2,0,4.4-0.7,6.2-2v36.7c0,4.9-4,8.8-8.8,8.8s-8.8-4-8.8-8.8v-7.4c0-6.9-5.6-12.6-12.5-12.6h0h-4.4V17.8c0-6.1-4.9-11.2-11-11.2
			H19.5c-6.1,0-11,5.1-11,11.2V116H2.7c-1.5,0-2.7,1.2-2.7,2.7c0,1.5,1.2,2.7,2.7,2.7h122.6c1.5,0,2.7-1.2,2.7-2.7
			C128,117.2,126.8,116,125.2,116z M108.7,47.7c-3,0-5.4-2.4-5.4-5.4c0-3,2.4-5.4,5.4-5.4c3,0,5.4,2.4,5.4,5.4
			C114.1,45.3,111.7,47.7,108.7,47.7z M75,116H13.9V17.8c0-3.2,2.5-5.8,5.6-5.8h49.8c3.2,0,5.7,2.7,5.7,5.8L75,116L75,116z"/>
	</g>
</g>
</svg>
