<?xml version="1.0" encoding="utf-8"?>
<!-- Generator: Adobe Illustrator 24.0.0, SVG Export Plug-In . SVG Version: 6.00 Build 0)  -->
<svg version="1.1" id="Layer_1" xmlns="http://www.w3.org/2000/svg" xmlns:xlink="http://www.w3.org/1999/xlink" x="0px" y="0px"
	 viewBox="0 0 128 128" style="enable-background:new 0 0 128 128;" xml:space="preserve">
<style type="text/css">
	.st0{fill:#5B47FB;}
</style>
<path class="st0" d="M107.2,113.3v12.6c0,1.2-1,2.1-2.1,2.1s-2.1-1-2.1-2.1v-12.6c0-9.8-7.9-17.8-17.8-17.8c-4.6,0-8.9-2.4-11.3-6.3
	c-0.6-1-0.3-2.3,0.7-2.9c1-0.6,2.3-0.3,2.9,0.7c1.6,2.7,4.5,4.3,7.6,4.3C97.4,91.2,107.2,101.1,107.2,113.3L107.2,113.3z M77.4,97.7
	c0.8,0.9,0.6,2.2-0.3,3c-3.1,2.6-7,4.3-11,4.7v9.8c0,1.2-1,2.1-2.1,2.1c-1.2,0-2.1-1-2.1-2.1v-9.8c-6.6-0.7-12.5-4.6-15.7-10.4
	c-1.1,0.3-2.2,0.4-3.3,0.4c-9.8,0-17.8,8-17.8,17.8v12.6c0,1.2-1,2.1-2.1,2.1c-1.2,0-2.1-1-2.1-2.1v-12.6c0-12.2,9.8-22,22-22
	c4.9,0,8.9-4,8.9-8.9v-0.6C42.4,77.3,35.9,68,35.5,57.1c-3.8-0.9-6.7-4.4-6.7-8.4v-26c0-4.7,3.4-8.5,7.9-9.2C40.5,5.2,48.7,0,57.8,0
	h18.3C89,0,99.5,10.5,99.5,23.3v25.3c0,1.2-1,2.1-2.1,2.1s-2.1-1-2.1-2.1V23.3c0-10.5-8.6-19.1-19.1-19.1H57.8
	C50,4.3,43,9,40.1,16.3c-0.3,0.8-1.1,1.3-2,1.3c-2.8,0-5.1,2.3-5.1,5.1v26c0,1.7,1,3.2,2.4,3.9V38.7c0-8.2,6.7-14.9,14.9-14.9h27.2
	c8.2,0,14.9,6.7,14.9,14.9v17.5c0,18.6-18.1,32.6-36.6,27.2c-0.3,4.2-2.6,7.8-5.9,9.9c5.1,8.6,16.7,10.6,24.4,4.1
	C75.3,96.7,76.7,96.8,77.4,97.7L77.4,97.7z M64,80.3c13.4,0,24.3-10.9,24.3-24.3V38.7c0-5.9-4.8-10.7-10.7-10.7H50.4
	c-5.9,0-10.7,4.8-10.7,10.7V56C39.7,69.4,50.6,80.3,64,80.3z"/>
</svg>
