<?xml version="1.0" encoding="utf-8"?>
<!-- Generator: Adobe Illustrator 24.0.0, SVG Export Plug-In . SVG Version: 6.00 Build 0)  -->
<svg version="1.1" id="Layer_1" xmlns="http://www.w3.org/2000/svg" xmlns:xlink="http://www.w3.org/1999/xlink" x="0px" y="0px"
	 viewBox="0 0 128 128" style="enable-background:new 0 0 128 128;" xml:space="preserve">
<style type="text/css">
	.st0{fill:#5B47FB;}
</style>
<g id="pharmacy-drug-drug_store-dispensary-store">
	<path class="st0" d="M68.2,110.5h33.8c3.5,0,6.3-2.8,6.3-6.3V74.6c0-3.5-2.8-6.3-6.3-6.3H68.2c-3.5,0-6.3,2.8-6.3,6.3v29.6
		C61.9,107.7,64.7,110.5,68.2,110.5z M66.1,74.6c0-1.2,0.9-2.1,2.1-2.1h33.8c1.2,0,2.1,0.9,2.1,2.1v29.6c0,1.2-0.9,2.1-2.1,2.1H68.2
		c-1.2,0-2.1-0.9-2.1-2.1V74.6z"/>
	<path class="st0" d="M95.7,87.3h4.2v-8.5c0-1.2-0.9-2.1-2.1-2.1h-8.5v4.2h6.3V87.3z"/>
	<path class="st0" d="M42.8,95.7h4.2v4.2h-4.2V95.7z"/>
	<path class="st0" d="M121.1,114.8h-4.2v-51c4.9-1,8.4-5.3,8.5-10.4c0-0.1,0-0.2,0-0.3l-3.7-26c-0.5-3.1-3.1-5.4-6.3-5.5H100V6.9
		c0-3.5-2.8-6.3-6.3-6.3H34.4c-3.5,0-6.3,2.8-6.3,6.3v14.8H12.7c-3.2,0-5.8,2.3-6.3,5.5l-3.7,26c0,0.1,0,0.2,0,0.3
		c0,5,3.5,9.3,8.5,10.4v51H6.9c-3.5,0-6.3,2.8-6.3,6.3s2.8,6.3,6.3,6.3h114.2c3.5,0,6.3-2.8,6.3-6.3S124.6,114.8,121.1,114.8z
		 M108.4,25.9h6.9c1,0,1.9,0.8,2.1,1.8l3.7,25.8c0,3.5-2.9,6.3-6.4,6.3s-6.3-2.9-6.3-6.4V25.9z M100,45v-19h4.2v27.5
		c0,3.5-2.8,6.3-6.3,6.3s-6.3-2.8-6.3-6.3v-2.1h2.1C97.1,51.3,100,48.5,100,45z M32.3,6.9c0-1.2,0.9-2.1,2.1-2.1h59.2
		c1.2,0,2.1,0.9,2.1,2.1V45c0,1.2-0.9,2.1-2.1,2.1H34.4c-1.2,0-2.1-0.9-2.1-2.1V6.9z M87.3,51.3v2.1c0,3.5-2.8,6.3-6.3,6.3
		s-6.3-2.8-6.3-6.3v-2.1H87.3z M70.3,51.3v2.1c0,3.5-2.8,6.3-6.3,6.3c-3.5,0-6.3-2.8-6.3-6.3v-2.1H70.3z M53.4,51.3v2.1
		c0,3.5-2.8,6.3-6.3,6.3c-3.5,0-6.3-2.8-6.3-6.3v-2.1H53.4z M23.8,25.9H28v19c0,3.5,2.8,6.3,6.3,6.3h2.1v2.1c0,3.5-2.8,6.3-6.3,6.3
		s-6.3-2.8-6.3-6.3V25.9z M21.7,59.8c3.5,4.7,10.1,5.6,14.8,2.1c0.8-0.6,1.5-1.3,2.1-2.1c3.5,4.7,10.1,5.6,14.8,2.1
		c0.8-0.6,1.5-1.3,2.1-2.1c3.5,4.7,10.1,5.6,14.8,2.1c0.8-0.6,1.5-1.3,2.1-2.1c3.5,4.7,10.1,5.6,14.8,2.1c0.8-0.6,1.5-1.3,2.1-2.1
		c3.5,4.7,10.1,5.6,14.8,2.1c0.8-0.6,1.5-1.3,2.1-2.1c1.6,2.1,3.8,3.5,6.3,4v51H53.4V85.2c0-9.3-7.6-16.9-16.9-16.9
		s-16.9,7.6-16.9,16.9v29.6h-4.2v-51C17.9,63.3,20.1,61.8,21.7,59.8z M49.2,85.2v29.6H23.8V85.2c0-7,5.7-12.7,12.7-12.7
		S49.2,78.1,49.2,85.2z M6.9,53.6l3.7-25.8c0.1-1,1-1.8,2.1-1.8h6.9v27.5c0,3.5-2.8,6.4-6.3,6.4S6.9,57.1,6.9,53.6L6.9,53.6z
		 M121.1,123.2H6.9c-1.2,0-2.1-0.9-2.1-2.1c0-1.2,0.9-2.1,2.1-2.1h114.2c1.2,0,2.1,0.9,2.1,2.1C123.2,122.3,122.3,123.2,121.1,123.2
		z"/>
	<path class="st0" d="M70.3,13.2V9H40.7v4.2H45v4.2h-2.1c-1.2,0-2.1,0.9-2.1,2.1v21.2c0,1.2,0.9,2.1,2.1,2.1h25.4
		c1.2,0,2.1-0.9,2.1-2.1V19.6c0-1.2-0.9-2.1-2.1-2.1h-2.1v-4.2H70.3z M49.2,13.2h12.7v4.2H49.2V13.2z M66.1,38.6H45V21.7h21.2V38.6z
		"/>
	<path class="st0" d="M57.7,23.8h-4.2V28h-4.2v4.2h4.2v4.2h4.2v-4.2h4.2V28h-4.2V23.8z"/>
	<path class="st0" d="M83,9c-4.7,0-8.5,3.8-8.5,8.5v16.9c0,4.7,3.8,8.5,8.5,8.5c4.7,0,8.5-3.8,8.5-8.5V17.5C91.5,12.8,87.7,9,83,9z
		 M87.3,34.4c0,2.3-1.9,4.2-4.2,4.2c-2.3,0-4.2-1.9-4.2-4.2V28h8.5V34.4z M87.3,23.8h-8.5v-6.3c0-2.3,1.9-4.2,4.2-4.2
		c2.3,0,4.2,1.9,4.2,4.2V23.8z"/>
</g>
</svg>
