<svg xmlns="http://www.w3.org/2000/svg" xmlns:xlink="http://www.w3.org/1999/xlink" width="128" height="128" viewBox="0 0 128 128">
  <defs>
    <clipPath id="clip-work-orders">
      <rect width="128" height="128"/>
    </clipPath>
  </defs>
  <g id="work-orders" clip-path="url(#clip-work-orders)">
    <g id="Group_508" data-name="Group 508" transform="translate(-320.942 -229.133)">
      <g id="Group_469" data-name="Group 469" transform="translate(320.981 256.659)">
        <path id="Path_712" data-name="Path 712" d="M114.632,95.639H13.329A13.2,13.2,0,0,1,0,82.31V18.329A13.2,13.2,0,0,1,13.329,5h101.3a13.2,13.2,0,0,1,13.329,13.329V82.31A13.2,13.2,0,0,1,114.632,95.639ZM13.329,10.332a8.2,8.2,0,0,0-8,8V82.31a8.2,8.2,0,0,0,8,8h101.3a8.2,8.2,0,0,0,8-8V18.329a8.2,8.2,0,0,0-8-8Z" transform="translate(0 -5)" fill="#5b47fb"/>
      </g>
      <g id="Group_470" data-name="Group 470" transform="translate(363.635 238)">
        <path id="Path_713" data-name="Path 713" d="M47.988,23.327a2.519,2.519,0,0,1-2.666-2.666V10a2.519,2.519,0,0,0-2.666-2.666H16A2.519,2.519,0,0,0,13.332,10V20.661a2.519,2.519,0,0,1-2.666,2.666A2.519,2.519,0,0,1,8,20.661V10a8.2,8.2,0,0,1,8-8H42.656a8.2,8.2,0,0,1,8,8V20.661A2.519,2.519,0,0,1,47.988,23.327Z" transform="translate(-8 -2)" fill="#5b47fb"/>
      </g>
      <g id="Group_471" data-name="Group 471" transform="translate(321.692 267.131)">
        <path id="Path_714" data-name="Path 714" d="M62.222,35.288,1.177,14.494C.11,13.961.1,13.151.635,11.551c.533-1.066,1.075-2.922,2.675-2.389L63.558,30.489,123.806,9.162a2.235,2.235,0,0,1,3.2,1.6,2.235,2.235,0,0,1-1.6,3.2L64.129,35.288A3.381,3.381,0,0,1,62.222,35.288Z" transform="translate(-0.288 -8.963)" fill="#5b47fb"/>
      </g>
    </g>
  </g>
</svg>
