<svg xmlns="http://www.w3.org/2000/svg" xmlns:xlink="http://www.w3.org/1999/xlink" width="128" height="128" viewBox="0 0 128 128">
  <defs>
    <clipPath id="clip-account">
      <rect width="128" height="128"/>
    </clipPath>
  </defs>
  <g id="account" clip-path="url(#clip-account)">
    <g id="user_1_" data-name="user (1)" transform="translate(0.214 -0.654)">
      <g id="Group_479" data-name="Group 479" transform="translate(0 1.045)">
        <g id="Group_478" data-name="Group 478" transform="translate(0)">
          <path id="Path_715" data-name="Path 715" d="M119.922,56.987A27.971,27.971,0,1,0,91.951,29.016,27.971,27.971,0,0,0,119.922,56.987Zm0-50.262A22.291,22.291,0,1,1,97.63,29.016,22.291,22.291,0,0,1,119.922,6.724Z" transform="translate(-66.962 -1.045)" fill="#5b47fb"/>
          <path id="Path_716" data-name="Path 716" d="M320.924,305.11a14.766,14.766,0,1,0,14.767,14.766q0-.071,0-.141A14.766,14.766,0,0,0,320.924,305.11Zm0,23.711a9.087,9.087,0,1,1,9.087-9.087A9.087,9.087,0,0,1,320.924,328.821Z" transform="translate(-222.954 -222.475)" fill="#5b47fb"/>
          <path id="Path_717" data-name="Path 717" d="M124.094,257.766a21.446,21.446,0,0,0-.142-5.254l3.55-3.408-4.686-10.791-4.97.284a45.278,45.278,0,0,0-3.692-3.692v-4.827l-11.075-4.26-3.266,3.692a18.308,18.308,0,0,0-4.827.142,40.608,40.608,0,0,0-21.014-12.495,3.265,3.265,0,0,0-2.272.426,32.656,32.656,0,0,1-37.626,0,2.981,2.981,0,0,0-2.272-.426A41.744,41.744,0,0,0,0,257.34V261.6a2.982,2.982,0,0,0,2.84,2.982H69.43l3.692,8.661,4.97-.426a28.964,28.964,0,0,0,3.692,3.55v4.97l11.075,4.259,3.266-3.692a32.939,32.939,0,0,0,5.254-.142l3.266,3.55,10.933-4.827-.568-4.828a23.561,23.561,0,0,0,3.692-3.833h4.827l4.259-11.075ZM72.412,239.592l-4.259,11.075,3.692,3.124a32.353,32.353,0,0,0,0,5.253H5.679v-1.7a36.062,36.062,0,0,1,26.108-34.273,38.617,38.617,0,0,0,21.173,6.3,38.19,38.19,0,0,0,21.163-6.387,34.783,34.783,0,0,1,11.493,5.677l-5.111,2.272.426,4.827a23.568,23.568,0,0,0-3.692,3.834Zm47.281,26.551h-3.976l-.852,1.42a22.71,22.71,0,0,1-4.4,4.686l-1.278.852.284,3.976-3.55,1.562-2.7-2.839-1.562.284a20.161,20.161,0,0,1-6.531.142H93.567l-2.556,2.84-3.55-1.42v-4.117l-1.278-.852a20.452,20.452,0,0,1-4.686-4.543l-.994-1.278-3.834.284-1.42-3.55,2.84-2.7-.284-1.42a21.157,21.157,0,0,1-.284-6.673l.284-1.42-2.982-2.556,1.42-3.55h3.976l.852-1.278a17.324,17.324,0,0,1,4.4-4.685l1.278-.852-.284-3.976,3.55-1.562,2.7,2.84,1.562-.284a20.015,20.015,0,0,1,6.531-.142h1.562l2.414-2.84,3.692,1.278v3.976l1.278.852a17.887,17.887,0,0,1,4.543,4.686l.994,1.136,3.834-.284,1.562,3.549-2.84,2.84.284,1.42a20.17,20.17,0,0,1,.284,6.532l-.284,1.562,2.982,2.556Z" transform="translate(0 -158.376)" fill="#5b47fb"/>
        </g>
      </g>
    </g>
  </g>
</svg>
