<?xml version="1.0" encoding="utf-8"?>
<!-- Generator: Adobe Illustrator 24.0.0, SVG Export Plug-In . SVG Version: 6.00 Build 0)  -->
<svg version="1.1" id="Capa_1" xmlns="http://www.w3.org/2000/svg" xmlns:xlink="http://www.w3.org/1999/xlink" x="0px" y="0px"
	 viewBox="0 0 128 128" style="enable-background:new 0 0 128 128;" xml:space="preserve">
<style type="text/css">
	.st0{fill:#5B47FB;}
</style>
<g>
	<path class="st0" d="M96.2,32.9C96.2,15.2,81.7,0.8,64,0.8S31.8,15.2,31.8,32.9c0,17,13.3,30.9,30,32.1v60.1c0,1.2,1,2.1,2.1,2.1
		s2.1-1,2.1-2.1V65C82.9,63.9,96.2,49.9,96.2,32.9z M64,60.8c-15.4,0-27.9-12.5-27.9-27.9S48.6,5,64,5s27.9,12.5,27.9,27.9
		S79.4,60.8,64,60.8z"/>
	<path class="st0" d="M53.3,15.8c-4.7,0-8.6,3.8-8.6,8.6s3.8,8.6,8.6,8.6s8.6-3.8,8.6-8.6S58,15.8,53.3,15.8z M53.3,28.6
		c-2.4,0-4.3-1.9-4.3-4.3s1.9-4.3,4.3-4.3c2.4,0,4.3,1.9,4.3,4.3S55.6,28.6,53.3,28.6z"/>
</g>
</svg>
