<?xml version="1.0" encoding="utf-8"?>
<!-- Generator: Adobe Illustrator 24.0.0, SVG Export Plug-In . SVG Version: 6.00 Build 0)  -->
<svg version="1.1" id="Capa_1" xmlns="http://www.w3.org/2000/svg" xmlns:xlink="http://www.w3.org/1999/xlink" x="0px" y="0px"
	 viewBox="0 0 128 128" style="enable-background:new 0 0 128 128;" xml:space="preserve">
<style type="text/css">
	.st0{fill:#5B47FB;}
	.st1{fill:#5B47FB;stroke:#5B47FB;stroke-miterlimit:10;}
</style>
<g>
	<g>
		<path class="st0" d="M113.4,49.5H14.6C6.6,49.5,0.1,56,0.1,64v34.9c0,8,6.5,14.5,14.5,14.5h98.8c8,0,14.5-6.5,14.5-14.5V64
			C127.9,56,121.4,49.5,113.4,49.5z M122.1,98.9c0,4.8-3.9,8.7-8.7,8.7H14.6c-4.8,0-8.7-3.9-8.7-8.7V64c0-4.8,3.9-8.7,8.7-8.7h98.8
			c4.8,0,8.7,3.9,8.7,8.7V98.9z"/>
	</g>
</g>
<g>
	<g>
		<path class="st1" d="M35.6,94.3H22.8V68.6h12.9c1.4,0,2.6-1.1,2.6-2.6c0-1.4-1.1-2.6-2.6-2.6H20.2c-1.4,0-2.6,1.1-2.6,2.6v30.9
			c0,1.4,1.1,2.6,2.6,2.6h15.5c1.4,0,2.6-1.1,2.6-2.6C38.2,95.5,37.1,94.3,35.6,94.3z"/>
	</g>
</g>
<g>
	<g>
		<path class="st1" d="M30.5,78.9H20.2c-1.4,0-2.6,1.1-2.6,2.6c0,1.4,1.1,2.6,2.6,2.6h10.3c1.4,0,2.6-1.1,2.6-2.6
			C33.1,80,31.9,78.9,30.5,78.9z"/>
	</g>
</g>
<g>
	<g>
		<path class="st1" d="M68.7,95.5L48.1,64.6c-0.8-1.2-2.4-1.5-3.6-0.7c-1.2,0.8-1.5,2.4-0.7,3.6l20.6,30.9c0.5,0.7,1.3,1.1,2.2,1.1
			c0.5,0,1-0.1,1.4-0.4C69.2,98.3,69.5,96.7,68.7,95.5z"/>
	</g>
</g>
<g>
	<g>
		<path class="st1" d="M68,63.9c-1.2-0.8-2.8-0.5-3.6,0.7L43.8,95.5c-0.8,1.2-0.5,2.8,0.7,3.6c0.4,0.3,0.9,0.4,1.4,0.4
			c0.8,0,1.6-0.4,2.2-1.1l20.6-30.9C69.5,66.2,69.2,64.6,68,63.9z"/>
	</g>
</g>
<g>
	<g>
		<path class="st1" d="M76.9,63.4c-1.4,0-2.6,1.1-2.6,2.6v30.9c0,1.4,1.1,2.6,2.6,2.6c1.4,0,2.6-1.1,2.6-2.6V66
			C79.5,64.6,78.3,63.4,76.9,63.4z"/>
	</g>
</g>
<g>
	<g>
		<path class="st1" d="M107.8,63.4H87.2c-1.4,0-2.6,1.1-2.6,2.6s1.1,2.6,2.6,2.6h20.6c1.4,0,2.6-1.1,2.6-2.6S109.3,63.4,107.8,63.4z
			"/>
	</g>
</g>
<g>
	<g>
		<path class="st1" d="M97.5,63.4c-1.4,0-2.6,1.1-2.6,2.6v30.9c0,1.4,1.1,2.6,2.6,2.6c1.4,0,2.6-1.1,2.6-2.6V66
			C100.1,64.6,98.9,63.4,97.5,63.4z"/>
	</g>
</g>
<g>
	<g>
		<path class="st0" d="M26.2,26.2c-1.6,0-2.9,1.3-2.9,2.9v23.2c0,1.6,1.3,2.9,2.9,2.9c1.6,0,2.9-1.3,2.9-2.9V29.1
			C29.1,27.5,27.8,26.2,26.2,26.2z"/>
	</g>
</g>
<g>
	<g>
		<path class="st0" d="M101.8,26.2c-1.6,0-2.9,1.3-2.9,2.9v23.2c0,1.6,1.3,2.9,2.9,2.9s2.9-1.3,2.9-2.9V29.1
			C104.7,27.5,103.4,26.2,101.8,26.2z"/>
	</g>
</g>
<g>
	<g>
		<path class="st0" d="M43.7,14.6H8.8c-1.6,0-2.9,1.3-2.9,2.9c0,8,6.5,14.5,14.5,14.5H32c8,0,14.5-6.5,14.5-14.5
			C46.6,15.9,45.3,14.6,43.7,14.6z M32,26.2H20.4c-3.8,0-7-2.4-8.2-5.8h28.1C39,23.8,35.8,26.2,32,26.2z"/>
	</g>
</g>
<g>
	<g>
		<path class="st0" d="M119.2,14.6H84.3c-1.6,0-2.9,1.3-2.9,2.9c0,8,6.5,14.5,14.5,14.5h11.6c8,0,14.5-6.5,14.5-14.5
			C122.1,15.9,120.8,14.6,119.2,14.6z M107.6,26.2H96c-3.8,0-7-2.4-8.2-5.8h28.1C114.6,23.8,111.4,26.2,107.6,26.2z"/>
	</g>
</g>
</svg>
