<?xml version="1.0" encoding="utf-8"?>
<!-- Generator: Adobe Illustrator 24.0.0, SVG Export Plug-In . SVG Version: 6.00 Build 0)  -->
<svg version="1.1" id="Layer_1" xmlns="http://www.w3.org/2000/svg" xmlns:xlink="http://www.w3.org/1999/xlink" x="0px" y="0px"
	 viewBox="0 0 128 128" style="enable-background:new 0 0 128 128;" xml:space="preserve">
<style type="text/css">
	.st0{fill:#5B47FB;}
</style>
<title>CAR</title>
<path class="st0" d="M125.1,53.5h-9.9c-1.2,0-2.1,1-2.1,2.1v2.1h-0.6c-0.9,0-1.8,0.6-2.1,1.5l-1,3.3l-7.8-20.5
	c-1.6-4.2-5.7-7-10.2-7H83c0.8-2,1.5-4,2-6.1c1.3-5.3,1.9-10.7,1.8-16.2c0-0.9-0.6-1.7-1.5-2c-9.7-3.1-17-6-20.4-7.5
	c-0.5-0.2-1.1-0.2-1.7,0c-3.5,1.5-10.7,4.4-20.4,7.5c-0.9,0.3-1.5,1.1-1.5,2C41.1,18.3,41.7,23.7,43,29c0.5,2.1,1.2,4.1,2,6.1h-8.3
	c-4.5,0-8.6,2.8-10.2,7l-7.8,20.5l-1-3.3c-0.3-0.9-1.1-1.5-2.1-1.5H15v-2.1c0-1.2-1-2.1-2.1-2.1H2.9c-1.2,0-2.1,1-2.1,2.1v7.8
	c0,1.2,1,2.1,2.1,2.1h9.9c0.8,0,1.5-0.4,1.9-1.1l1.3,4.5L8.3,83.2c0,0,0,0,0,0.1c-0.2,0.3-0.2,0.6-0.2,1v19.6c0,3.3,2.6,6.1,6,6.3
	v7.1c0,4.2,3.4,7.6,7.6,7.6h8.4c4.2,0,7.6-3.4,7.6-7.6v-7h52.6v7c0,4.2,3.4,7.6,7.6,7.6h8.4c4.2,0,7.6-3.4,7.6-7.6v-7.1
	c3.3-0.2,5.9-3,6-6.3V84.2c0-0.3-0.1-0.7-0.2-1c0,0,0,0,0,0L111.9,69l1.3-4.5c0.4,0.7,1.1,1.1,1.9,1.1h9.9c1.2,0,2.1-1,2.1-2.1l0,0
	v-7.8C127.2,54.4,126.3,53.5,125.1,53.5z M10.7,61.3H5.1v-3.5h5.6V61.3z M106.9,91.3c0,2.7-2.2,5-5,5c-2.7,0-5-2.2-5-5
	c0-2.7,2.2-5,5-5C104.6,86.4,106.9,88.6,106.9,91.3z M13.8,82.1l5.8-10.7h88.7l5.8,10.7H13.8z M80.8,86.4L79.5,90h-31l-1.3-3.7H80.8
	z M31.1,91.3c0,2.7-2.2,5-5,5c-2.7,0-5-2.2-5-5c0-2.7,2.2-5,5-5C28.8,86.4,31.1,88.6,31.1,91.3z M95.8,59.8H32.2l5-13h15.4
	c3,3,6.7,5.3,10.7,6.8c0.5,0.2,1,0.2,1.5,0c4-1.5,7.6-3.8,10.7-6.8h15.4L95.8,59.8z M64,7.7c3.6,1.5,10.1,4.1,18.5,6.8
	c0,4.6-0.6,9.1-1.7,13.5C78.2,38.6,72.5,45.7,64,49.3c-8.5-3.5-14.2-10.7-16.8-21.3c-1.1-4.4-1.6-9-1.7-13.5
	C53.9,11.7,60.4,9.2,64,7.7z M30.5,43.6c1-2.6,3.5-4.2,6.2-4.3H47c0.6,1.1,1.2,2.1,1.9,3.1H36.7c-1.5,0-2.8,0.9-3.3,2.3l-6.3,16.4
	c-0.4,1.1,0.1,2.3,1.2,2.8c0.2,0.1,0.5,0.1,0.8,0.1h69.9c1.2,0,2.1-1,2.1-2.1c0-0.3,0-0.5-0.1-0.8l-6.3-16.4
	c-0.5-1.4-1.9-2.3-3.3-2.3H79.1c0.7-1,1.3-2,1.9-3.1h10.3c2.7,0,5.2,1.7,6.2,4.3l9,23.4h-85L30.5,43.6z M33.4,117.2
	c0,1.8-1.5,3.3-3.3,3.3h-8.4c-1.8,0-3.3-1.5-3.3-3.3v-7h15.1V117.2z M106.4,120.6h-8.4c-1.8,0-3.3-1.5-3.3-3.3v-7h15.1v7
	C109.7,119.1,108.2,120.6,106.4,120.6L106.4,120.6z M115.7,103.8c0,1.1-0.9,2.1-2.1,2.1H14.4c-1.1,0-2.1-0.9-2.1-2.1V86.4h6
	c-2.8,4.3-1.5,10,2.8,12.8c4.3,2.8,10,1.5,12.8-2.8c1.9-3,1.9-6.9,0-10h8.8l2.2,6.5c0.3,0.9,1.1,1.5,2,1.5H81c0.9,0,1.7-0.6,2-1.4
	l2.2-6.5h8.8c-2.8,4.3-1.5,10,2.8,12.8c4.3,2.8,10,1.5,12.8-2.8c1.9-3,1.9-6.9,0-10h6L115.7,103.8z M122.9,61.3h-5.6v-3.5h5.6V61.3z
	"/>
<path class="st0" d="M59.9,33.6c0.4,0.4,1,0.6,1.5,0.6l0,0c0.6,0,1.1-0.2,1.5-0.6l10.2-10.5c0.8-0.8,0.8-2.2,0-3
	c-0.8-0.8-2.2-0.8-3,0c0,0,0,0,0,0L61.4,29l-3.6-3.7c-0.8-0.9-2.1-1-3-0.2c-0.9,0.8-1,2.1-0.2,3c0,0,0.1,0.1,0.1,0.1L59.9,33.6z"/>
</svg>
