<?xml version="1.0" encoding="utf-8"?>
<!-- Generator: Adobe Illustrator 24.0.0, SVG Export Plug-In . SVG Version: 6.00 Build 0)  -->
<svg version="1.1" id="Layer_1" xmlns="http://www.w3.org/2000/svg" xmlns:xlink="http://www.w3.org/1999/xlink" x="0px" y="0px"
	 viewBox="0 0 128 128" style="enable-background:new 0 0 128 128;" xml:space="preserve">
<style type="text/css">
	.st0{fill:#5B47FB;}
</style>
<path class="st0" d="M108.9,1.3H19.1c-1.5,0-2.6,1.2-2.6,2.6v120.1c0,1.5,1.2,2.6,2.6,2.6h89.7c1.5,0,2.6-1.2,2.6-2.6V3.9
	C111.5,2.5,110.3,1.3,108.9,1.3z M47.9,6.6h32.1v4.8c0,2.7-2.1,4.8-4.7,4.8H52.6c-2.6,0-4.7-2.2-4.7-4.8V6.6z M106.2,121.4H21.8V6.6
	h20.9v4.8c0,5.6,4.5,10.1,10,10.1h22.7c5.5,0,10-4.5,10-10.1V6.6h20.9V121.4z"/>
<path class="st0" d="M89.1,57.1V42.3c0-1.5-1.2-2.6-2.6-2.6s-2.6,1.2-2.6,2.6v14.8h-9.7v-9c0-1.5-1.2-2.6-2.6-2.6
	c-1.5,0-2.6,1.2-2.6,2.6v9h-9.7V33.8c0-1.5-1.2-2.6-2.6-2.6s-2.6,1.2-2.6,2.6v23.3h-9.7v-5.3c0-1.5-1.2-2.6-2.6-2.6
	c-1.5,0-2.6,1.2-2.6,2.6v5.3"/>
<path class="st0" d="M34.1,77.4h59.8c1.5,0,2.6-1.2,2.6-2.6s-1.2-2.6-2.6-2.6H34.1c-1.5,0-2.6,1.2-2.6,2.6S32.6,77.4,34.1,77.4z"/>
<path class="st0" d="M34.1,92.3h59.8c1.5,0,2.6-1.2,2.6-2.6S95.4,87,93.9,87H34.1c-1.5,0-2.6,1.2-2.6,2.6S32.6,92.3,34.1,92.3z"/>
<path class="st0" d="M34.1,107.3h26.2c1.5,0,2.6-1.2,2.6-2.6c0-1.5-1.2-2.6-2.6-2.6H34.1c-1.5,0-2.6,1.2-2.6,2.6
	C31.5,106.1,32.6,107.3,34.1,107.3z"/>
<path class="st0" d="M38.9,51.9v5.3c0,1.5,1.2,2.6,2.6,2.6c1.5,0,2.6-1.2,2.6-2.6v-5.3"/>
<path class="st0" d="M53.9,51.9v5.3c0,1.5,1.2,2.6,2.6,2.6c1.5,0,2.6-1.2,2.6-2.6v-5.3"/>
<path class="st0" d="M68.8,51.9v5.3c0,1.5,1.2,2.6,2.6,2.6c1.5,0,2.6-1.2,2.6-2.6v-5.3"/>
<path class="st0" d="M83.8,51.9v5.3c0,1.5,1.2,2.6,2.6,2.6c1.5,0,2.6-1.2,2.6-2.6v-5.3"/>
</svg>
