<?xml version="1.0" encoding="utf-8"?>
<!-- Generator: Adobe Illustrator 24.0.0, SVG Export Plug-In . SVG Version: 6.00 Build 0)  -->
<svg version="1.1" id="Capa_1" xmlns="http://www.w3.org/2000/svg" xmlns:xlink="http://www.w3.org/1999/xlink" x="0px" y="0px"
	 viewBox="0 0 128 128" style="enable-background:new 0 0 128 128;" xml:space="preserve">
<style type="text/css">
	.st0{fill:#5B47FB;}
</style>
<g>
	<g>
		<path class="st0" d="M90.4,27.6C86.6,16.2,76.1,8.5,64,8.5c-12.1,0-22.6,7.7-26.4,19.2c-0.2,0.6-0.1,1.2,0.3,1.7
			c0.4,0.5,0.9,0.8,1.5,0.8h49.2C89.8,30.1,90.8,28.8,90.4,27.6z M42.1,26.4C46,17.8,54.4,12.2,64,12.2c9.6,0,18,5.6,21.9,14.2H42.1
			z"/>
	</g>
</g>
<g>
	<g>
		<path class="st0" d="M75.9,66.1c-3.2,0-5.8,2.6-5.8,5.8c0,3.2,2.6,5.8,5.8,5.8c3.2,0,5.8-2.6,5.8-5.8
			C81.8,68.7,79.1,66.1,75.9,66.1z M75.9,74.1c-1.2,0-2.1-0.9-2.1-2.1c0-1.2,0.9-2.1,2.1-2.1c1.2,0,2.1,0.9,2.1,2.1
			C78,73.1,77.1,74.1,75.9,74.1z"/>
	</g>
</g>
<g>
	<g>
		<path class="st0" d="M52.1,66.1c-3.2,0-5.8,2.6-5.8,5.8c0,3.2,2.6,5.8,5.8,5.8s5.8-2.6,5.8-5.8C57.9,68.7,55.3,66.1,52.1,66.1z
			 M52.1,74.1c-1.2,0-2.1-0.9-2.1-2.1c0-1.2,0.9-2.1,2.1-2.1s2.1,0.9,2.1,2.1C54.2,73.1,53.2,74.1,52.1,74.1z"/>
	</g>
</g>
<g>
	<g>
		<path class="st0" d="M125.6,60.1h-0.3c1.3-1.7,2.1-3.8,2.1-6.1c0-5.4-4.4-9.8-9.8-9.8c-5.4,0-9.8,4.4-9.8,9.8
			c0,2.3,0.8,4.4,2.1,6.1h-0.3c-1,0-1.9,0.8-1.9,1.9s0.8,1.9,1.9,1.9h2.1V66c-0.2,0.1-0.4,0.2-0.6,0.4c-1.7,1.6-3.4,3.2-5.2,4.7
			c-0.2,0.1-0.3,0.3-0.4,0.5l-1.4-1.9c-0.6-0.8-1.8-1-2.6-0.4c-0.6,0.4-1.2,0.9-1.9,1.3V36.2c0-19.7-16-35.7-35.7-35.7
			s-35.7,16-35.7,35.7v34.4c-0.5-0.3-0.9-0.7-1.4-1c-0.8-0.6-1.9-0.4-2.6,0.4L23,71.6c-2.3-1.8-4.4-3.6-6.5-5.6
			c-0.1-0.1-0.2-0.2-0.4-0.3v-1.9h2.1c1,0,1.9-0.8,1.9-1.9s-0.8-1.9-1.9-1.9H18c1.3-1.7,2.1-3.8,2.1-6.1c0-5.4-4.4-9.8-9.8-9.8
			c-5.4,0-9.8,4.4-9.8,9.8c0,2.3,0.8,4.4,2.1,6.1H2.4c-1,0-1.9,0.8-1.9,1.9s0.8,1.9,1.9,1.9h2.1v61.7c0,1,0.8,1.9,1.9,1.9h8
			c1,0,1.9-0.8,1.9-1.9V70.8c1.5,1.3,3,2.6,4.5,3.8l-1.2,1.6c-0.6,0.8-0.5,2,0.4,2.7c1.1,0.8,2.3,1.6,3.5,2.4
			c1.7,1.1,3.4,2.1,5.1,3.1v25.4c0,1,0.8,1.9,1.9,1.9h67.6c1,0,1.9-0.8,1.9-1.9V84.4c2.1-1.2,4.1-2.4,6.1-3.8
			c0.9-0.6,1.7-1.2,2.7-1.9c0.8-0.6,1-1.8,0.4-2.6l-1.3-1.8c0.3-0.1,0.5-0.2,0.8-0.4c1.2-1,2.4-2,3.5-3v54.6c0,1,0.8,1.9,1.9,1.9h8
			c1,0,1.9-0.8,1.9-1.9V63.9h2.1c1,0,1.9-0.8,1.9-1.9C127.5,61,126.7,60.1,125.6,60.1z M12.4,123.8H8.2V63.9h4.2V123.8z M10.3,60.1
			c-3.4,0-6.1-2.7-6.1-6.1S7,48,10.3,48s6.1,2.7,6.1,6.1C16.4,57.4,13.7,60.1,10.3,60.1z M64,4.2c17,0,30.9,13.3,31.9,30.1h-12
			c-1,0-1.9,0.8-1.9,1.9s0.8,1.9,1.9,1.9h12.1v35c-7.4,4.5-17.6,8.6-30.1,9V38h19.9c1,0,1.9-0.8,1.9-1.9c0-1-0.8-1.9-1.9-1.9H32.1
			C33.1,17.6,47,4.2,64,4.2z M32.1,38h30.1v44c-10.5-0.3-20.6-3.4-30.1-9.1C32.1,73,32.1,38,32.1,38z M62.1,107.9H32.1V86.3
			c9.5,4.7,19.6,7.2,30.1,7.4L62.1,107.9L62.1,107.9z M95.9,107.9H65.9V93.7c0.1,0,0.2,0,0.3,0c10.4-0.3,20.4-2.8,29.8-7.3V107.9z
			 M103.7,77.5C92.2,85.4,79.5,89.6,66,90c-0.7,0-1.4,0-2,0c-13.7,0-26.7-4-38.7-11.9c-0.6-0.4-1.2-0.8-1.7-1.2l2.6-3.3
			c0.5,0.3,1,0.7,1.4,1c11.8,7.8,24.7,11.6,38.3,11.2c15.9-0.5,28.3-6.7,36.3-12.4l2.5,3.4C104.4,77.1,104,77.3,103.7,77.5z
			 M119.8,123.8h-4.2V63.9h4.2V123.8z M117.7,60.1c-3.4,0-6.1-2.7-6.1-6.1s2.7-6.1,6.1-6.1c3.4,0,6.1,2.7,6.1,6.1
			C123.8,57.4,121,60.1,117.7,60.1z"/>
	</g>
</g>
</svg>
