<svg xmlns="http://www.w3.org/2000/svg" xmlns:xlink="http://www.w3.org/1999/xlink" width="128" height="128" viewBox="0 0 128 128">
  <defs>
    <clipPath id="clip-home">
      <rect width="128" height="128"/>
    </clipPath>
  </defs>
  <g id="home" clip-path="url(#clip-home)">
    <path id="Union_6" data-name="Union 6" d="M76.917,116.115H20.684A11.1,11.1,0,0,1,9.631,105V55.789L6.585,58.854a3.855,3.855,0,0,1-5.441-5.461L48.958,5.232a17.736,17.736,0,0,1,25.155,0l47.85,48.16a3.893,3.893,0,0,1,0,5.461A3.756,3.756,0,0,1,119.226,60a3.69,3.69,0,0,1-2.7-1.15l-3.048-3.064V105a11.1,11.1,0,0,1-11.054,11.119Zm25.5-7.734A3.387,3.387,0,0,0,105.784,105V48.049L68.672,10.705a10.1,10.1,0,0,0-14.275,0L17.323,48.041V105a3.365,3.365,0,0,0,3.36,3.385H42.3V77.906A12.1,12.1,0,0,1,54.33,65.791H68.742A12.076,12.076,0,0,1,80.763,77.906v30.475Zm-29.348,0V77.906a4.351,4.351,0,0,0-4.331-4.373H54.33A4.353,4.353,0,0,0,50,77.906v30.475Z" transform="translate(2.959 5.92)" fill="#5b47fb"/>
    <path id="Union_5" data-name="Union 5" d="M76.917,116.115H20.684A11.1,11.1,0,0,1,9.631,105V55.789L6.585,58.854a3.855,3.855,0,0,1-5.441-5.461L48.958,5.232a17.736,17.736,0,0,1,25.155,0l47.85,48.16a3.893,3.893,0,0,1,0,5.461A3.756,3.756,0,0,1,119.226,60a3.69,3.69,0,0,1-2.7-1.15l-3.048-3.064V105a11.1,11.1,0,0,1-11.054,11.119Zm25.5-7.734A3.387,3.387,0,0,0,105.784,105V48.049L68.672,10.705a10.1,10.1,0,0,0-14.275,0L17.323,48.041V105a3.365,3.365,0,0,0,3.36,3.385H42.3V77.906A12.1,12.1,0,0,1,54.33,65.791H68.742A12.076,12.076,0,0,1,80.763,77.906v30.475Zm-29.348,0V77.906a4.351,4.351,0,0,0-4.331-4.373H54.33A4.353,4.353,0,0,0,50,77.906v30.475Z" transform="translate(2.959 5.92)" fill="none" stroke="#fff" stroke-width="2.6"/>
  </g>
</svg>
