<?xml version="1.0" encoding="utf-8"?>
<!-- Generator: Adobe Illustrator 24.0.0, SVG Export Plug-In . SVG Version: 6.00 Build 0)  -->
<svg version="1.1" id="Capa_1" xmlns="http://www.w3.org/2000/svg" xmlns:xlink="http://www.w3.org/1999/xlink" x="0px" y="0px"
	 viewBox="0 0 128 128" style="enable-background:new 0 0 128 128;" xml:space="preserve">
<style type="text/css">
	.st0{fill:#5B47FB;}
</style>
<g>
	<g>
		<path class="st0" d="M74.9,112.1l26.1-46c3.7-6.7,5.7-14.3,5.7-22C106.7,19.8,87.5,0,64,0S21.3,19.8,21.3,44.1
			c0,7.8,2,15.4,5.7,22.1l26,45.9 M32.8,63c-3.2-5.7-4.9-12.2-4.9-18.8C27.9,23.4,44.1,6.6,64,6.6s36.1,16.9,36.1,37.6
			c0,6.6-1.7,13.1-4.8,18.8L64,118.1l-6.3-11L32.8,63z M53.1,112.1l8.1,14.2c0.6,1,1.7,1.6,2.9,1.6c1.2,0,2.3-0.6,2.9-1.6l8.1-14.2"
			/>
		<path class="st0" d="M87,42.7c0-12.7-10.3-23-23-23S41,30,41,42.7s10.3,23,23,23S87,55.3,87,42.7z M47.6,42.7
			c0-9.1,7.3-16.4,16.4-16.4s16.4,7.3,16.4,16.4S73.1,59.1,64,59.1S47.6,51.7,47.6,42.7z"/>
	</g>
</g>
</svg>
