<?xml version="1.0" encoding="utf-8"?>
<!-- Generator: Adobe Illustrator 24.0.0, SVG Export Plug-In . SVG Version: 6.00 Build 0)  -->
<svg version="1.1" id="Layer_1" xmlns="http://www.w3.org/2000/svg" xmlns:xlink="http://www.w3.org/1999/xlink" x="0px" y="0px"
	 viewBox="0 0 128 128" style="enable-background:new 0 0 128 128;" xml:space="preserve">
<style type="text/css">
	.st0{fill:#5B47FB;}
</style>
<path class="st0" d="M66.1,9.3H53.5c-1.2,0-2.1,0.9-2.1,2.1v35.8h4.2V30.3h10.5c5.8,0,10.5-4.7,10.5-10.5S71.9,9.3,66.1,9.3z
	 M66.1,26.1H55.6V13.5h10.5c3.5,0,6.3,2.8,6.3,6.3S69.6,26.1,66.1,26.1z"/>
<path class="st0" d="M85,0.9H43c-2.3,0-4.2,1.9-4.2,4.2v46.3c0,2.3,1.9,4.2,4.2,4.2h10.5v6.3c0,1.2,0.9,2.1,2.1,2.1h2.1v50.5H47.2
	c-1.2,0-2.1,0.9-2.1,2.1v8.4c0,1.2,0.9,2.1,2.1,2.1h33.7c1.2,0,2.1-0.9,2.1-2.1v-8.4c0-1.2-0.9-2.1-2.1-2.1H70.3V64h2.1
	c1.2,0,2.1-0.9,2.1-2.1v-6.3H85c2.3,0,4.2-1.9,4.2-4.2V5.1C89.2,2.8,87.4,0.9,85,0.9z M78.7,122.9H49.3v-4.2h29.4V122.9z
	 M66.1,114.5h-4.2V64h4.2V114.5z M70.3,59.8H57.7v-4.2h12.6V59.8z M43,51.4V5.1H85v46.3H43z"/>
</svg>
