<?xml version="1.0" encoding="utf-8"?>
<!-- Generator: Adobe Illustrator 24.0.0, SVG Export Plug-In . SVG Version: 6.00 Build 0)  -->
<svg version="1.1" id="Layer_1" xmlns="http://www.w3.org/2000/svg" xmlns:xlink="http://www.w3.org/1999/xlink" x="0px" y="0px"
	 viewBox="0 0 128 128" style="enable-background:new 0 0 128 128;" xml:space="preserve">
<style type="text/css">
	.st0{fill:#5B47FB;}
</style>
<path class="st0" d="M125.6,68.2H2.4c-1.2,0-2.1-1-2.1-2.1v-8.5c0-1.2,1-2.1,2.1-2.1h123.2c1.2,0,2.1,1,2.1,2.1v8.5
	C127.7,67.3,126.8,68.2,125.6,68.2z M4.5,64h118.9v-4.2H4.5V64z"/>
<path class="st0" d="M100.1,110.7H72.5c-1.2,0-2.1-1-2.1-2.1v-17c0-1.2,1-2.1,2.1-2.1h27.6c1.2,0,2.1,1,2.1,2.1v17
	C102.2,109.8,101.3,110.7,100.1,110.7z M74.6,106.5H98V93.7H74.6V106.5z"/>
<path class="st0" d="M40.6,110.7H19.4c-1.2,0-2.1-1-2.1-2.1V87.4c0-1.2,1-2.1,2.1-2.1h21.2c1.2,0,2.1,1,2.1,2.1v21.2
	C42.8,109.8,41.8,110.7,40.6,110.7z M21.5,106.5h17v-17h-17V106.5z"/>
<path class="st0" d="M89.5,93.7H76.7c-1.2,0-2.1-1-2.1-2.1V78.9c0-1.2,1-2.1,2.1-2.1h12.7c1.2,0,2.1,1,2.1,2.1v12.7
	C91.6,92.8,90.7,93.7,89.5,93.7z M78.9,89.5h8.5V81h-8.5V89.5z"/>
<path class="st0" d="M108.6,110.7h-8.5c-1.2,0-2.1-1-2.1-2.1V93.7h-8.5c-1.2,0-2.1-1-2.1-2.1v-17c0-1.2,1-2.1,2.1-2.1h19.1
	c1.2,0,2.1,1,2.1,2.1v34C110.7,109.8,109.8,110.7,108.6,110.7z M102.2,106.5h4.2V76.7H91.6v12.7h8.5c1.2,0,2.1,1,2.1,2.1V106.5z"/>
<path class="st0" d="M64,110.7H40.6c-1.2,0-2.1-1-2.1-2.1V89.5h-4.2c-1.2,0-2.1-1-2.1-2.1V74.6c0-1.2,1-2.1,2.1-2.1H64
	c1.2,0,2.1,1,2.1,2.1v34C66.1,109.8,65.2,110.7,64,110.7z M42.8,106.5h19.1V76.7H36.4v8.5h4.2c1.2,0,2.1,1,2.1,2.1V106.5z"/>
<path class="st0" d="M91.6,102.2H81c-1.2,0-2.1-1-2.1-2.1v-8.5c0-1.2,1-2.1,2.1-2.1h10.6c1.2,0,2.1,1,2.1,2.1v8.5
	C93.7,101.3,92.8,102.2,91.6,102.2z M83.1,98h6.4v-4.2h-6.4V98z"/>
<path class="st0" d="M49.1,85.2c-1.2,0-2.1-1-2.1-2.1v-8.5c0-1.2,1-2.1,2.1-2.1c1.2,0,2.1,1,2.1,2.1v8.5
	C51.3,84.3,50.3,85.2,49.1,85.2z"/>
<path class="st0" d="M51.3,51.3c-1.2,0-2.1-1-2.1-2.1v-8.5c0-1.2,1-2.1,2.1-2.1c1.2,0,2.1,1,2.1,2.1v8.5
	C53.4,50.3,52.4,51.3,51.3,51.3z"/>
<path class="st0" d="M125.6,21.5H2.4c-1.2,0-2.1-1-2.1-2.1v-17c0-1.2,1-2.1,2.1-2.1h123.2c1.2,0,2.1,1,2.1,2.1v17
	C127.7,20.6,126.8,21.5,125.6,21.5z M4.5,17.3h118.9V4.5H4.5V17.3z"/>
<path class="st0" d="M64,59.8H38.5c-1.2,0-2.1-1-2.1-2.1v-17c0-1.2,1-2.1,2.1-2.1H64c1.2,0,2.1,1,2.1,2.1v17
	C66.1,58.8,65.2,59.8,64,59.8z M40.6,55.5h21.2V42.8H40.6V55.5z"/>
<path class="st0" d="M98,59.8H64c-1.2,0-2.1-1-2.1-2.1V44.9c0-1.2,1-2.1,2.1-2.1h34c1.2,0,2.1,1,2.1,2.1v12.7
	C100.1,58.8,99.2,59.8,98,59.8z M66.1,55.5h29.7V47H66.1V55.5z"/>
<path class="st0" d="M106.5,59.8H98c-1.2,0-2.1-1-2.1-2.1V47H72.5c-1.2,0-2.1-1-2.1-2.1v-17c0-1.2,1-2.1,2.1-2.1h34
	c1.2,0,2.1,1,2.1,2.1v29.7C108.6,58.8,107.7,59.8,106.5,59.8z M100.1,55.5h4.2V30H74.6v12.7H98c1.2,0,2.1,1,2.1,2.1V55.5z"/>
<path class="st0" d="M95.9,38.5H83.1c-1.2,0-2.1-1-2.1-2.1v-8.5c0-1.2,1-2.1,2.1-2.1h12.7c1.2,0,2.1,1,2.1,2.1v8.5
	C98,37.6,97,38.5,95.9,38.5z M85.2,34.3h8.5V30h-8.5V34.3z"/>
<path class="st0" d="M27.9,59.8h-8.5c-1.2,0-2.1-1-2.1-2.1V44.9c0-3.5,2.9-6.4,6.4-6.4s6.4,2.9,6.4,6.4v12.7
	C30,58.8,29.1,59.8,27.9,59.8z M21.5,55.5h4.2V44.9c0-1.2-1-2.1-2.1-2.1c-1.2,0-2.1,1-2.1,2.1V55.5z"/>
<path class="st0" d="M23.6,42.8c-1.2,0-2.1-1-2.1-2.1v-8.5c0-1.2,1-2.1,2.1-2.1c1.2,0,2.1,1,2.1,2.1v8.5
	C25.8,41.8,24.8,42.8,23.6,42.8z"/>
<path class="st0" d="M115,13H2.4c-1.2,0-2.1-1-2.1-2.1s1-2.1,2.1-2.1H115c1.2,0,2.1,1,2.1,2.1S116.1,13,115,13z"/>
<path class="st0" d="M104.4,13h-8.5c-1.2,0-2.1-1-2.1-2.1s1-2.1,2.1-2.1h8.5c1.2,0,2.1,1,2.1,2.1S105.5,13,104.4,13z"/>
<path class="st0" d="M125.6,13h-12.7c-1.2,0-2.1-1-2.1-2.1s1-2.1,2.1-2.1h12.7c1.2,0,2.1,1,2.1,2.1S126.8,13,125.6,13z"/>
<path class="st0" d="M125.6,127.7H2.4c-1.2,0-2.1-1-2.1-2.1v-17c0-1.2,1-2.1,2.1-2.1h123.2c1.2,0,2.1,1,2.1,2.1v17
	C127.7,126.8,126.8,127.7,125.6,127.7z M4.5,123.5h118.9v-12.7H4.5V123.5z"/>
<path class="st0" d="M125.6,119.2h-85c-1.2,0-2.1-1-2.1-2.1s1-2.1,2.1-2.1h85c1.2,0,2.1,1,2.1,2.1S126.8,119.2,125.6,119.2z"/>
<path class="st0" d="M32.1,119.2h-8.5c-1.2,0-2.1-1-2.1-2.1s1-2.1,2.1-2.1h8.5c1.2,0,2.1,1,2.1,2.1S33.3,119.2,32.1,119.2z"/>
<path class="st0" d="M44.3,119.2H2.4c-1.2,0-2.1-1-2.1-2.1s1-2.1,2.1-2.1h41.9c1.2,0,2.1,1,2.1,2.1S45.5,119.2,44.3,119.2z"/>
<path class="st0" d="M117.1,59.8H10.9c-1.2,0-2.1-1-2.1-2.1V19.4c0-1.2,1-2.1,2.1-2.1h106.2c1.2,0,2.1,1,2.1,2.1v38.2
	C119.2,58.8,118.3,59.8,117.1,59.8z M13,55.5H115v-34H13V55.5z"/>
<path class="st0" d="M117.1,110.7H10.9c-1.2,0-2.1-1-2.1-2.1V66.1c0-1.2,1-2.1,2.1-2.1h106.2c1.2,0,2.1,1,2.1,2.1v42.5
	C119.2,109.8,118.3,110.7,117.1,110.7z M13,106.5H115V68.2H13V106.5z"/>
</svg>
