<svg xmlns="http://www.w3.org/2000/svg" xmlns:xlink="http://www.w3.org/1999/xlink" width="128" height="128" viewBox="0 0 128 128">
  <defs>
    <clipPath id="clip-video-assets">
      <rect width="128" height="128"/>
    </clipPath>
  </defs>
  <g id="video-assets" clip-path="url(#clip-video-assets)">
    <g id="Group_509" data-name="Group 509" transform="matrix(1, 0.017, -0.017, 1, 3.148, 0.969)">
      <g id="Group_466" data-name="Group 466" transform="translate(0 0)">
        <path id="Path_709" data-name="Path 709" d="M62.416,0a62.416,62.416,0,1,0,62.416,62.416A62.486,62.486,0,0,0,62.416,0Zm0,119.631a57.215,57.215,0,1,1,57.215-57.215A57.28,57.28,0,0,1,62.416,119.631Z" transform="translate(0 0)" fill="#5b47fb"/>
        <path id="Path_710" data-name="Path 710" d="M232.417,173.152l-36.409-23.406A2.6,2.6,0,0,0,192,151.932v46.812a2.6,2.6,0,0,0,4.008,2.187l36.409-23.406a2.6,2.6,0,0,0,0-4.374ZM197.2,193.98V156.7l29,18.641Z" transform="translate(-145.188 -112.922)" fill="#5b47fb"/>
      </g>
    </g>
  </g>
</svg>
